<svg width="155" height="81" viewBox="0 0 155 81" fill="none" xmlns="http://www.w3.org/2000/svg">
<g clip-path="url(#clip0_129_1049)">
<path d="M58.5645 35.0906C59.1828 33.6538 60.8053 31.407 61.6243 29.9776C62.2042 28.9652 63.2449 27.2589 63.8378 26.3336C64.2425 25.702 67.7193 26.0736 68.7705 25.9309C68.7061 26.6253 68.7416 27.846 68.7405 28.592L68.722 33.1924L68.7132 39.2026C68.7127 40.3078 68.6751 41.7248 68.7535 42.8061C67.3439 42.7555 65.0013 42.7413 63.6099 42.8255C63.4896 42.5508 63.5849 35.627 63.6023 34.7772C62.3567 36.5751 60.9854 39.1801 59.6553 40.9399C59.3835 41.2995 57.7265 41.1319 57.1916 41.0702C55.7908 39.1394 54.6123 37.0425 53.2521 35.0878C53.6863 37.417 53.1743 40.7364 53.4831 42.8047C52.546 42.75 49.2034 42.7462 48.3291 42.8665L48.3391 31.4045C48.3371 29.7567 48.3085 27.8809 48.391 26.2205C48.3985 26.0716 48.4425 26.0823 48.582 25.9833C49.9564 26.0426 51.284 25.8588 52.7302 26.0368C53.6359 26.7667 57.5924 33.5597 58.5645 35.0906Z" fill="#fff"/>
<path d="M131.225 25.3587L131.401 25.41C131.573 25.7492 131.452 30.5392 131.389 31.1929C133.671 29.7068 136.386 29.1823 138.735 30.9506C139.341 31.407 140.089 32.3495 140.265 33.0716C141.012 36.1242 140.242 39.7007 140.612 42.7803C139.152 42.7808 137.608 42.7572 136.155 42.8107C136.151 41.2957 136.284 36.198 136.029 34.9779C135.879 34.2287 134.579 33.4299 133.897 33.535C132.067 33.8173 131.435 35.1583 131.463 36.8904C131.494 38.8383 131.411 40.8337 131.525 42.7843L126.933 42.7766C127.123 40.8852 127.042 36.9216 127.019 34.8635C126.986 31.9027 127.167 28.2814 127.048 25.4129C128.436 25.2951 129.827 25.4342 131.225 25.3587Z" fill="#fff"/>
<path d="M29.6565 25.9857C29.7519 25.9902 29.7582 26.0094 29.8519 26.0598C29.9986 25.8187 26.6265 28.3241 26.4971 28.4189C23.1165 30.8942 17.6987 38.2629 13.962 39.7072C13.8682 39.6693 13.7755 39.6284 13.6843 39.5845C12.834 39.1722 12.6003 38.5563 12.3244 37.7388C11.2988 34.067 11.1707 29.723 9.79199 26.0196C11.1678 26.0559 12.7402 26.0133 14.1327 26.0134L22.8922 26.0034C24.2132 25.9951 25.5343 25.995 26.8554 26.0029C27.7419 26.011 28.7856 26.061 29.6565 25.9857Z" fill="#fff"/>
<path d="M31.9481 31.9857C36.2038 31.716 36.8438 39.7598 37.6979 42.7674L22.2473 42.7886C20.4114 42.7917 17.8163 42.8591 16.0449 42.7199C16.806 42.3106 17.7708 41.4783 18.4866 40.9442C22.0359 38.2957 27.5146 32.5891 31.9481 31.9857Z" fill="#fff"/>
<path d="M76.5745 29.8523L76.6986 29.8443C79.3 29.6851 82.0488 30.6973 83.2654 33.1416C83.9702 34.5568 83.8301 36.0304 83.9132 37.5536C82.9909 37.4911 82.0258 37.552 81.098 37.5398C78.941 37.5113 76.7207 37.5965 74.57 37.5431C75.8443 40.441 78.7059 39.6181 80.9849 38.7193C81.3416 39.0646 81.7672 39.546 82.1128 39.9163C82.3826 40.1985 82.7718 40.5561 82.9205 40.9019C82.8263 41.9728 79.6884 42.7679 78.7622 42.8537C76.4368 43.0688 74.2254 42.8552 72.3773 41.2968C71.1873 40.2934 70.3385 38.9257 70.2233 37.3592C69.8038 33.0676 72.2791 30.2658 76.5745 29.8523ZM74.5577 35.2244C75.4579 35.1634 76.3602 35.1385 77.2623 35.1499C78.0821 35.1659 79.1434 35.2154 79.9439 35.1605C79.3965 33.9895 78.5981 32.8726 77.1355 33.0108C75.5661 33.2423 75.0574 33.6347 74.5577 35.2244Z" fill="#fff"/>
<path d="M105.476 29.8518C107.716 29.6064 111.343 30.4146 112.187 32.8126C113.228 35.7737 112.31 39.7295 112.74 42.7677C111.369 42.7904 109.997 42.7935 108.626 42.7771C108.615 42.1175 108.629 41.6103 108.739 40.9629C108.039 41.7515 107.405 42.5028 106.321 42.7472C104.529 43.1512 103.175 43.0218 101.602 42.1351C100.003 41.3054 99.6561 38.6407 100.497 37.2307C101.7 35.213 104.996 35.2098 107.038 35.297C107.429 35.3138 108.191 35.3879 108.383 35.0227C108.321 34.4775 107.379 33.6075 106.899 33.4523C105.256 32.9205 103.538 33.6147 102.088 34.2594C101.626 33.4774 100.992 32.1089 100.631 31.2711C102.543 30.4092 103.303 30.0967 105.476 29.8518ZM106.946 40.0025C107.481 39.7619 107.779 39.4105 108.167 38.9848L108.311 37.6443C107.403 37.6242 106.495 37.6356 105.589 37.6784C103.156 38.3245 104.485 40.8494 106.946 40.0025Z" fill="#fff"/>
<path d="M93.0446 29.8489C94.22 29.6723 95.9405 30.0699 96.866 30.7848C100.146 33.3193 98.3349 39.1487 98.8673 42.7821C97.3532 42.7758 95.8392 42.7837 94.326 42.8055C94.349 41.327 94.6804 35.2329 93.8617 34.3211C93.5287 33.9509 92.7693 33.6537 92.2749 33.6244C91.4467 33.5754 90.8859 34.0736 90.3093 34.589C89.523 35.4704 89.7073 37.5207 89.7128 38.6738C89.7239 40.046 89.7271 41.4182 89.7215 42.7905C88.55 42.7432 86.2964 42.7485 85.1455 42.816C85.2333 38.6403 85.1874 34.2368 85.1859 30.0561C86.6469 30.0625 88.1071 30.0602 89.5673 30.0489L89.3442 31.4484C90.7665 30.4601 91.2901 30.0756 93.0446 29.8489Z" fill="#fff"/>
<path d="M119.768 29.8534C121.438 29.8025 123.609 30.1162 125.127 30.8376C124.924 31.9268 124.396 32.9254 123.9 33.9065C122.674 33.1898 119.598 32.3968 118.41 33.4998C117.998 33.8823 118.132 34.4327 118.69 34.5703C121.31 35.2225 125.54 34.7866 125.605 38.5929C125.671 42.4362 121.892 42.8685 118.923 42.9177C117.91 42.8899 114.408 42.5427 113.871 41.692C113.781 41.298 114.832 39.3207 115.07 38.8044C116.986 39.3675 119.396 40.3442 121.382 39.4242C121.619 39.3145 121.663 39.2314 121.734 39.0213C121.535 38.2037 119.233 38.0306 118.503 37.8979C116.715 37.5726 114.245 36.9183 114.034 34.7166C113.699 31.2166 116.878 30.0746 119.768 29.8534Z" fill="#fff"/>
<path d="M8.31251 31.8808C8.5934 31.8658 9.14854 31.8456 9.33079 32.1227C10.9854 34.6393 10.8846 40.5164 12.8357 42.7584C10.7128 42.7844 8.58976 42.7939 6.46668 42.7868L2.06104 42.7854C3.14204 40.4541 6.13624 32.8843 8.31251 31.8808Z" fill="#fff"/>
<path d="M34.437 25.9615C36.9282 25.9403 39.9402 25.9497 42.4121 25.9984C42.3896 27.9364 42.382 29.8744 42.3893 31.8126C42.3913 32.8977 42.4284 34.3512 42.3366 35.4068L42.1678 35.4018C41.9169 35.1093 41.0728 33.4701 40.7961 32.984C39.7412 31.1186 38.3975 29.432 36.8152 27.9868C36.052 27.2858 35.3161 26.7386 34.4736 26.1424C34.4736 26.1424 34.4405 25.9788 34.437 25.9615Z" fill="#fff"/>
<path d="M114.356 47.8059C115.718 47.9687 118.437 47.5538 119.286 48.5387C121.103 50.6448 119.652 52.6324 117.248 52.7997C116.628 52.8725 115.799 52.8374 115.159 52.8291C115.167 53.4311 115.577 55.668 114.356 55.1702C114.214 54.9936 114.209 54.7828 114.21 54.5601C114.222 52.3649 114.181 50.1627 114.239 47.9694C114.239 47.9694 114.346 47.8203 114.356 47.8059ZM115.173 52.0994C116.196 52.1044 117.733 52.1483 118.57 51.5575C119.144 50.7974 119.539 49.8101 118.564 49.1885C117.653 48.6079 116.223 48.7451 115.169 48.7659C115.125 49.8337 115.182 51.0196 115.173 52.0994Z" fill="#fff"/>
<path d="M125.683 47.852C127.155 47.8516 129.515 47.5904 130.707 48.5224C131.165 48.88 131.475 49.5082 131.509 50.0942C131.627 52.0572 130.354 52.6537 128.639 52.7892C128.119 52.8811 127.107 52.7951 126.585 52.7505C126.576 53.5909 126.578 54.4315 126.592 55.2719L125.624 55.0243C125.715 52.7289 125.64 50.1907 125.683 47.852ZM130.003 51.6235C130.948 50.4006 130.809 50.094 129.825 48.9258C128.553 48.6514 127.745 48.8036 126.563 48.7022L126.571 52.2153C127.664 52.1201 129.128 52.2312 130.003 51.6235Z" fill="#fff"/>
<path d="M105.058 47.6621C105.358 47.7193 105.669 47.8383 105.821 48.1283C106.391 49.2171 106.887 50.3515 107.375 51.4788C107.875 52.6307 108.598 53.8483 108.954 55.0512L108.839 55.1815C108.544 55.2671 108.186 55.1089 107.882 55.0116C107.644 54.4722 107.474 53.8572 107.303 53.2888C106.679 53.227 105.904 53.2431 105.264 53.2403C104.447 53.2356 103.876 53.2609 103.062 53.3325C102.773 54.0609 102.507 55.3923 101.626 55.2253L101.542 55.0862C101.55 54.9705 102.568 52.5536 102.674 52.3444C103.219 51.2658 104.253 48.4141 105.058 47.6621ZM105.205 52.4703C105.737 52.4886 106.296 52.4994 106.826 52.5315C106.337 51.4279 105.782 50.0401 105.293 48.9078C105.23 48.8753 105.176 48.8477 105.131 48.825C104.89 49.6414 103.976 51.5693 103.556 52.5207C104.176 52.4446 104.577 52.4571 105.205 52.4703Z" fill="#fff"/>
<path d="M16.6058 47.6897C16.7961 47.7576 17.133 47.9257 17.2355 48.1037C17.8511 49.1727 18.3061 50.3327 18.8257 51.4495C19.3088 52.488 19.8641 53.4908 20.2848 54.5556C20.3828 54.8039 20.4531 54.9399 20.3454 55.1756C19.3597 55.5378 19.008 53.9842 18.7933 53.3391C18.1308 53.2728 17.5749 53.2559 16.9078 53.241C16.1453 53.232 15.3079 53.1971 14.5661 53.3762C14.304 54.0345 13.9778 55.4192 13.1303 55.1797L13.0742 54.9965C13.3101 53.9057 15.5302 49.4824 16.1179 48.239C16.1987 48.0681 16.454 47.8205 16.6058 47.6897ZM15.0445 52.5463C15.657 52.4621 16.0584 52.4661 16.6805 52.4676C17.1843 52.4676 17.7965 52.4537 18.2895 52.4894C18.1408 52.1095 16.6883 48.6639 16.6307 48.6247C16.4776 48.9188 16.3883 49.1847 16.2843 49.4976C15.9382 50.5381 15.4466 51.5292 15.0445 52.5463Z" fill="#fff"/>
<path d="M25.7978 47.797C26.0479 47.84 26.2988 47.7852 26.5425 47.8657C26.9641 48.0049 26.532 51.3261 26.7798 51.8383C27.5558 51.6368 29.9266 47.8053 31.3387 47.824C31.455 47.8256 31.8222 47.7369 31.9669 47.7131C31.7962 47.9143 31.6054 48.109 31.4138 48.2908C30.4368 49.2179 29.5588 50.2343 28.6033 51.1812C29.3188 51.8236 29.7666 52.3738 30.3911 53.0994C30.7372 53.4969 31.9122 54.6739 31.923 55.1005L31.7963 55.2116C31.4792 55.2613 31.1206 55.1078 30.8074 55.0054C29.9555 54.0314 28.7235 52.7728 28.0325 51.7586C27.2789 52.4749 26.5194 52.957 26.7304 54.087C26.8446 54.6982 26.5555 55.4632 25.8189 55.1775C25.5358 54.8138 25.5413 48.2035 25.7978 47.797Z" fill="#fff"/>
<path d="M90.6786 47.801L90.8748 47.8289C91.0884 48.1835 90.9397 50.4603 90.8685 50.9634C92.3374 50.9181 93.853 50.9427 95.325 50.9489C95.2768 50.4812 95.2792 48.5159 95.3266 48.0456C95.5718 47.762 95.8392 47.7242 96.1319 47.9735C96.2529 48.7974 96.1382 51.0172 96.1691 51.9537C96.1873 52.5089 96.1983 54.6819 96.1414 55.0889C95.961 55.257 95.7118 55.2342 95.4611 55.2452C95.113 54.8887 95.2459 52.5042 95.2515 51.8643C93.7889 51.8777 92.3263 51.8807 90.8637 51.8733C90.8779 52.6858 90.9436 54.2593 90.8819 55.0177C90.6114 55.3404 90.3567 55.3086 90.064 55.0254C89.9359 54.3595 89.9485 48.8213 90.0118 48.0048C90.1882 47.8287 90.416 47.8363 90.6786 47.801Z" fill="#fff"/>
<path d="M37.3651 47.8406L41.1415 47.8268C41.4683 47.8268 42.1635 47.7827 42.3739 47.993C42.3848 48.2329 42.4158 48.4793 42.3321 48.7024C42.0262 48.8304 38.7387 48.773 38.1646 48.7719C38.2371 49.4089 38.2873 50.296 38.2139 50.9271C38.9044 50.9544 41.7047 50.7528 42.0205 51.2204C41.9914 51.625 41.8378 51.8152 41.4201 51.8536C40.4743 51.9405 39.3668 51.8845 38.4238 51.8731L38.3062 51.899C38.1904 52.0621 38.2747 53.7629 38.2222 54.2572C39.2994 54.2657 40.3769 54.2767 41.4541 54.2857C41.9064 54.2895 42.6789 54.2894 42.5172 54.9678C42.2839 55.1791 38.0739 55.1035 37.3091 55.1685C37.3763 52.7265 37.3949 50.2834 37.3651 47.8406Z" fill="#fff"/>
<path d="M137.264 47.8627C138.8 47.8535 140.477 47.8072 142.008 47.8855C142.115 47.891 142.105 47.9223 142.188 48.0292C142.198 48.2697 142.238 48.5149 142.116 48.7185C141.881 48.818 138.504 48.7349 137.973 48.7288C138.031 49.3911 138.124 50.3367 138.073 50.9772C138.619 50.9412 141.558 50.8435 141.872 51.0725C141.931 51.361 141.889 51.5744 141.685 51.7777C140.922 51.9179 138.908 51.8517 138.056 51.8403C137.967 52.6002 138.152 53.4753 138.042 54.3261C138.774 54.22 142.247 54.2362 142.698 54.7144C142.219 55.1572 138.201 55.0773 137.164 55.172C137.159 54.5004 137.235 47.9589 137.264 47.8627Z" fill="#fff"/>
<path d="M49.903 47.7989C50.8551 47.7608 51.9925 47.7712 52.771 48.3868C52.8652 48.6964 52.8653 48.5738 52.8014 48.8665C52.0245 49.347 48.2726 47.4305 48.9633 50.4083C50.1289 51.1958 51.5357 51.0129 52.6874 51.9613C53.804 52.8808 53.0948 54.3416 52.0046 54.8823C51.476 55.1445 51.0512 55.1785 50.4867 55.2229C49.7536 55.2362 48.1211 54.9001 47.6549 54.3058C47.6123 54.0322 47.5875 54.1403 47.7555 53.904C48.1753 53.6703 49.328 54.2131 49.8705 54.3306C50.553 54.4783 52.16 54.4162 52.2393 53.4528C52.4096 51.3877 48.9546 52.352 48.1237 50.8584C47.7212 50.1349 47.8516 49.7241 47.9879 48.9693C48.7012 48.2572 48.9032 47.9751 49.903 47.7989Z" fill="#fff"/>
<path d="M75.1764 47.8147C75.8338 47.8247 77.4519 47.6516 77.8703 48.1111C77.973 48.3371 77.9496 48.4045 77.9126 48.6415C77.6148 48.8999 75.7647 48.7945 75.2699 48.7878C75.3592 49.8911 75.2858 51.3691 75.3238 52.5036C75.3406 53.0064 75.3691 54.7305 75.2948 55.1432C75.0671 55.2606 74.6986 55.2229 74.4298 55.2179C74.3402 54.9372 74.3771 49.3095 74.4469 48.7774C73.796 48.7491 72.1471 48.9996 71.7878 48.4949C71.7492 48.177 71.7301 48.305 71.863 48.0108C72.1922 47.7517 74.5285 47.828 75.1764 47.8147Z" fill="#fff"/>
<path d="M65.8923 47.7627C66.2377 47.7716 66.4287 47.7504 66.6672 47.9888C66.8131 50.2449 66.6095 52.6986 66.6779 54.9711C66.6821 55.1112 66.3909 55.2272 66.2759 55.2889C66.0103 55.2284 65.672 55.1334 65.6935 54.8031C65.7564 53.8335 65.4842 48.2866 65.8923 47.7627Z" fill="#fff"/>
<path d="M142.406 31.2638C143.743 30.6688 144.447 30.339 145.92 30.0614C148.008 29.6682 150.56 29.7315 152.386 30.9385C153.277 31.5274 154.084 32.7259 154.271 33.7627C154.441 33.9528 154.505 34.0348 154.723 34.1827V42.8929L154.129 42.7982C153.266 42.746 151.132 42.7357 150.328 42.8666C150.43 42.325 150.491 41.6747 150.59 41.096C149.791 41.7136 149.494 42.2631 148.522 42.5847C147.022 43.0686 145.347 43.064 143.902 42.4135C142.031 41.5706 141.233 39.2621 142.131 37.4303C143.12 35.4119 146.104 35.2437 148.058 35.2928C148.561 35.3056 149.615 35.3694 150.055 35.2262C150.221 34.7161 149.459 33.8408 149.026 33.6127C147.15 32.6254 145.399 33.7487 143.686 34.1913C143.446 33.7845 142.683 31.8722 142.406 31.2638ZM148.349 40.2125C149.765 39.5933 150.051 39.0345 150.133 37.5653C149.455 37.5687 148.696 37.5555 148.026 37.6055C147.392 37.6391 146.784 37.6437 146.329 38.1655C146.129 38.3901 146.033 38.6887 146.063 38.988C146.174 40.0441 147.475 40.3286 148.349 40.2125Z" fill="#fff"/>
<path d="M154.271 33.7627C154.441 33.9529 154.505 34.0348 154.722 34.1827V42.8929L154.128 42.7982C154.036 41.6721 154.074 39.8379 154.082 38.6851C154.091 37.4032 154.069 34.9922 154.271 33.7627Z" fill="#fff"/>
<path d="M0 26.0288C1.90441 25.8635 4.35304 26.184 6.14631 25.9084C4.25656 27.7471 2.65971 29.8645 1.41135 32.1868C1.06859 32.8105 0.386278 34.4093 0 34.8565V26.0288Z" fill="#fff"/>
<path d="M3.71252 52.8012C4.14521 52.1417 4.665 51.5896 5.09406 50.9141C5.69962 49.9607 6.24035 48.9598 6.89537 48.0424C7.11143 47.7465 7.29912 47.7459 7.61032 47.8575C7.95983 48.3355 7.67743 53.7122 7.76379 54.7934C7.7772 54.9614 7.55722 55.1408 7.43794 55.2362C7.14514 55.286 7.26515 55.2975 6.98332 55.1859C6.54281 54.7044 7.01586 50.5888 6.67694 49.7395C6.34127 49.7711 6.24039 50.2045 6.10992 50.4825C5.73285 51.2859 4.46289 53.9094 3.79037 54.3226C3.60842 54.2876 3.52113 54.216 3.41717 54.0329C2.44213 52.3164 1.57533 51.301 0.99528 49.4163C0.833074 51.1952 0.879688 53.497 0.946387 55.2976C0.653312 55.2298 0.280512 55.1548 0 55.0658V48.7268C0.252094 48.3833 0.137333 48.1011 0.370318 47.8042C1.16223 47.8475 3.31186 52.0016 3.71252 52.8012Z" fill="#fff"/>
<path d="M149 49.4096C149.053 50.3924 149.601 54.9761 148.651 55.3626L148.492 55.2745C148.415 55.1648 148.28 54.9715 148.283 54.8313C148.302 53.6419 148.261 52.4242 148.269 51.2383C148.276 50.1756 148.176 48.9094 148.318 47.8717L148.507 47.7793C149.605 47.8291 152.371 52.3607 153.361 53.2157L153.448 53.1813L153.55 52.7399C153.695 53.3939 153.752 54.3202 153.604 54.9725C152.777 54.1071 151.774 52.8738 151.021 51.9156C150.293 50.9879 149.892 50.2984 149 49.4096Z" fill="#fff"/>
<path d="M153.542 47.8883C154.065 47.8849 154.205 47.8792 154.723 47.7606V55.4113C154.304 55.2688 153.941 55.2797 153.604 54.9725C153.752 54.3202 153.695 53.3939 153.551 52.74C153.414 52.1709 153.532 48.6866 153.542 47.8883Z" fill="#fff"/>
</g>
<defs>
<clipPath id="clip0_129_1049">
<rect width="154.723" height="81" fill="#fff"/>
</clipPath>
</defs>
</svg>
